# xmcd CD database file
#
# Track frame offsets:
#	150
#	52664
#	84536
#	121243
#	155740
#	202462
#	217364
#	253439
#	298243
#
# Disc length: 4327 seconds
#
# Revision: 0
# Processed by: cddbd v1.4PL0 Copyright (c) Steve Scherf et al.
# Submitted via: CDex 1.50beta9
#
DISCID=9710e509
DTITLE=Keith Jarrett - Gary Peacock - Jack DeJohnette - Tokyo '96
DYEAR=1996
DGENRE=Jazz
TTITLE0=It could happen to you
TTITLE1=Never let me go
TTITLE2=Billie's Bounce
TTITLE3=Summer Night
TTITLE4=I'll remember April
TTITLE5=Mona Lisa
TTITLE6=Last night when we were young
TTITLE7=Carribean Sky
TTITLE8=John's Abbey
EXTD=YEAR: 1996
EXTT0=
EXTT1=
EXTT2=
EXTT3=
EXTT4=
EXTT5=
EXTT6=
EXTT7=
EXTT8=
PLAYORDER=
